<svg width="20" height="14" viewBox="0 0 20 14" fill="none" xmlns="http://www.w3.org/2000/svg">
<path fill-rule="evenodd" clip-rule="evenodd" d="M8.40018 5.0354C7.99215 5.98901 6.92281 6.47243 5.93736 6.14878C5.64499 6.05275 5.33064 6 5 6C3.34315 6 2 7.34315 2 9C2 10.6569 3.34315 12 5 12H13C15.7614 12 18 9.76142 18 7C18 4.23858 15.7614 2 13 2C10.9394 2 9.16544 3.24691 8.40018 5.0354ZM6.56143 4.24864C6.07015 4.08728 5.54527 4 5 4C2.23858 4 0 6.23858 0 9C0 11.7614 2.23858 14 5 14H13C16.866 14 20 10.866 20 7C20 3.13401 16.866 0 13 0C10.1108 0 7.63037 1.75042 6.56143 4.24864Z" fill="#2F80ED"/>
</svg>
